<?xml version="1.0" encoding="utf-8"?>
<!-- Generator: Adobe Illustrator 28.4.1, SVG Export Plug-In . SVG Version: 6.00 Build 0)  -->
<svg version="1.1" id="Layer_1" xmlns="http://www.w3.org/2000/svg" xmlns:xlink="http://www.w3.org/1999/xlink" x="0px" y="0px"
	 viewBox="0 0 120 120" style="enable-background:new 0 0 120 120;" xml:space="preserve">
<style type="text/css">
	.st0{fill:#FFFEFA;}
	.st1{fill:#FCBA0E;}
	.st2{fill:#B5A997;}
	.st3{fill:#050400;}
	.st4{fill:#E3DED7;}
	.st5{stroke:#000000;stroke-width:0.3;stroke-miterlimit:10;}
	.st6{stroke:#000000;stroke-width:0.4;stroke-miterlimit:10;}
</style>
<g>
	<path class="st4" d="M55.13,65.63c-6.99,2.86-11.89,4.9-12.39,5.17c-0.06,0.04-0.31,0.18-0.57,0.11c-0.2-0.05-0.35-0.23-0.51-0.45
		c-0.04-0.06-0.06-0.15-0.09-0.22c-0.38-0.87-1.15-1.79-1.04-2.6c0.09-0.72,1.41-0.85,2.16-1.29c1.58-0.91,3.19-1.79,4.93-2.4
		c4.27-1.52,8.35-3.46,12.5-5.25c0.44-0.19,0.88-0.36,1.33-0.5c0.51-0.16,0.9-0.14,0.62,0.57c-0.2,0.52,0.25,0.78,0.47,1.11
		c0.49,0.72,1.06,1.39,1.2,2.3c0.04,0.26,0.14,0.51-0.18,0.56c-2.72,0.42-5.01,2.01-7.62,2.75C55.69,65.59,55.47,65.81,55.13,65.63z
		"/>
	<path class="st4" d="M94.95,66.33c0.1,2.97-1.05,5.01-3.01,6.67c-0.36,0.3-0.68,0.49-1.18,0.28c-2.04-0.86-4.1-1.67-6.14-2.55
		c-0.51-0.22-1.26-0.48-0.5-1.26c0.21-0.42,0.49-1.02,0.82-1.74c0.74-1.63,1.1-2.45,1.13-2.96c0.04-0.82-0.21-1.34,0.09-2.28
		c0.13-0.42,0.3-0.68,0.54-0.75c0.18-0.05,0.41,0.03,0.76,0.3c0.66,0.49,1.56,0.45,2.38,0.58c0.92,0.15,1.83,0.13,2.77,0.38
		C94.69,63.55,94.68,65.16,94.95,66.33z"/>
	<path class="st1" d="M23.08,62.97c0.55-0.64,1.05-1.28,1.62-1.85c2.44-2.44,5.47-4.13,8.15-6.26c1.37-1.1,2.84-2.03,4.5-2.64
		c0.29-0.11,0.64-0.27,0.8-0.51c0.74-1.19,1.33-0.45,1.82,0.16c2.58,3.25,4.94,6.64,6.76,10.38c0.27,0.55,0.21,1.03-0.2,1.25
		c-0.85,0.47-1.59,1.24-2.65,1.25c-0.45,0-0.74,0.26-1.07,0.48c-0.52,0.36-1.01,0.65-1.69,0.76c-0.73,0.12-1.32,0.65-1.42,1.54
		c-0.19,1.74-0.45,3.46-0.66,5.2c-0.05,0.43-0.22,0.71-0.55,1c-1.41,1.24-3.2,1.95-4.51,3.33c-0.44,0.47-0.8-0.16-1.04-0.45
		c-1.46-1.82-2.92-3.65-4.29-5.53c-1.76-2.42-3.43-4.9-5.13-7.35C23.36,63.5,23.24,63.25,23.08,62.97z"/>
	<path class="st1" d="M67.1,71.95c0.15-2.27-1.51-3.51-2.63-5.02c-0.33-0.44-0.35-0.83-0.17-1.18c0.27-0.52,0.72-1.05,1.38-0.98
		c0.78,0.09,1.26-0.35,1.83-0.71c3.85-2.42,7.62-4.99,11.6-7.17c2.05-1.12,4.2-2.1,6.28-3.18c0.98-0.51,1.91-1.11,2.88-1.66
		c0.43-0.24,0.73-0.37,1.14,0.24c1.01,1.47,2.13,2.85,2.78,4.56c0.24,0.63-0.01,0.92-0.39,1.19c-2.84,1.99-5.76,3.86-8.95,5.22
		c-2.26,0.96-4.69,1.37-7.17,1.24c-1.23-0.07-2.32,0.33-3.4,0.77c-0.41,0.17-0.47,0.86-0.41,1.26c0.08,0.53,0.48,1.03,1.09,1.12
		c0.29,0.04,0.63,0.01,0.68,0.31c0.06,0.38-0.34,0.48-0.61,0.64C71.13,69.74,69.01,70.49,67.1,71.95z"/>
	<path class="st1" d="M38.97,40.75c1.36,0.58,2.4-0.09,3.45-0.28c5.64-1.03,11.34-1.81,16.91-3.21c0.88-0.22,1.81-0.26,2.72-0.29
		c0.96-0.03,1.9-0.03,2.79-0.47c0.68-0.33,1.05,0.01,1.18,0.69c0.17,0.89-0.06,1.8,0.25,2.71c0.17,0.48-0.46,0.34-0.78,0.42
		c-4.72,1.11-9.61,1.11-14.34,2.13c-3.44,0.75-6.9,1.47-10.42,1.75c-1.59,0.13-1.74,0.01-1.74-1.53
		C38.97,42.06,38.97,41.47,38.97,40.75z"/>
	<path class="st1" d="M60.34,46.52c-0.43-0.01-0.64-0.31-0.64-0.6c0-0.3,0.27-0.55,0.64-0.58c0.34-0.03,0.55,0.16,0.58,0.45
		C60.97,46.2,60.67,46.4,60.34,46.52z"/>
	<path d="M88.89,50.91c1.19-0.45,2.21-1.02,3.15-1.66c0.96-0.66,1.81-0.52,2.66-0.02c1.59,0.93,2.34,2.4,2.55,4.22
		c0.17,1.5-0.25,2.44-1.68,3.22c-2.34,1.27-4.63,2.63-6.93,3.98c-0.4,0.23-0.85,0.39-1.26,0.86c1.65,0.33,3.23,0.42,4.72,0.88
		c0.51,0.16,1.52-0.04,1.41,0.68c-0.07,0.51-0.99,0.2-1.56,0.1c-1.68-0.31-3.36-0.58-5.04-0.89c-0.29-0.06-0.51-0.07-0.46,0.27
		c0.47,3.25-1.4,5.59-3.07,8.01c-0.6,0.87-0.61,0.88,0.29,1.32c2.11,1.01,4.22,2.03,6.44,2.79c0.31,0.11,0.87,0.18,0.76,0.6
		c-0.13,0.52-0.67,0.32-1.02,0.2c-2.49-0.84-4.86-1.96-7.16-3.22c-0.07-0.04-0.16-0.04-0.22-0.09c-0.28-0.25,0.01-0.9-0.58-0.92
		c-1.12-0.02-2.24,0-3.36,0.02c-0.19,0-0.24,0.16-0.25,0.33c-0.05,1.08-0.89,1.42-1.71,1.51c-1.22,0.13-2.47,0.21-3.68-0.19
		c-0.85-0.28-1.64-0.62-2.05-1.5c-0.06-0.14-0.19-0.25-0.29-0.37c-0.24-0.26-0.49-0.16-0.73,0c-0.31,0.21-0.07,0.4,0.04,0.6
		c0.85,1.62,1.69,3.24,2.54,4.86c0.09,0.18,0.21,0.34,0.28,0.53c0.55,1.38,0.41,1.6-0.94,2.24c-5.97,2.82-12.19,5.04-18.21,7.75
		c-1.19,0.54-2.53,0.77-3.68,1.34c-2.72,1.35-5.23,0.46-7.74-0.46c-1.45-0.53-2.82-1.29-4.16-2.07c-0.56-0.33-0.66-0.61-0.56-1.32
		c0.37-2.64,0.9-5.25,1.06-7.92c0.04-0.67,0.35-1.32,0.18-2.09c-0.45,0.15-0.8,0.44-1.17,0.7c-0.93,0.68-1.87,1.37-2.82,2.02
		c-1.06,0.73-1.53,0.67-2.31-0.33c-1.2-1.54-2.38-3.1-3.54-4.67c-1.57-2.11-3.13-4.23-4.7-6.34c-0.5-0.68-0.83-1.44-1.2-2.19
		c-0.37-0.75-0.25-1.3,0.36-1.9c1.46-1.43,3.02-2.75,4.68-3.91c2.9-2.04,5.68-4.25,8.69-6.14c0.71-0.45,1.45-0.85,2.23-1.08
		c0.55-0.17,0.64-0.39,0.54-0.82c-0.59-2.52-0.61-5.13-1.13-7.66c-0.25-1.25-0.09-1.49,1.21-1.75c3.62-0.71,7.25-1.39,10.88-2.05
		c4.61-0.84,9.22-1.64,13.83-2.51c2.09-0.39,2.31-0.26,2.58,1.84c0.53,4.22,1.02,8.44,1.65,12.64c0.23,1.53,0.35,3.08,0.54,4.62
		c0.07,0.58-0.11,0.85-0.74,0.95c-2.67,0.43-5.32,0.92-7.98,1.38c-1.92,0.33-3.84,0.65-5.75,0.97c-0.01,0.1-0.05,0.18-0.03,0.23
		c0.69,1.15,0.69,1.15,1.94,0.7c1.23-0.44,2.43-0.96,3.72-1.26c1.41-0.32,1.62-0.23,2.52,0.93c1.17,1.51,2,3.24,3.09,4.8
		c0.33,0.48,0.48,0.49,0.89,0.2c0.48-0.34,1.33-0.39,0.7-1.38c-0.24-0.38-0.01-0.91,0.45-1.34c0.75-0.69,2.28-2.32,5.04-3.27
		c0.56-0.19,1.84-0.63,3.48-0.81c0.33-0.04,0.51-0.05,0.83-0.1c1.29-0.21,2.28-0.7,2.92-1.09c-1.84-0.94-3.61-1.45-5.27-2.21
		c-0.37-0.17-0.47,0.03-0.66,0.24c-0.49,0.53-1,1.04-1.52,1.53c-0.35,0.32-0.72,0.62-1.22,0.7c-0.84,0.15-1.2-0.11-1.24-0.96
		c-0.04-0.68,0.05-1.35,0.26-2c1.04-3.17,2.16-6.3,3.78-9.24c0.11-0.21,0.2-0.43,0.32-0.64c0.85-1.42,1.29-1.57,2.94-1.23
		c3.09,0.63,6.04,1.68,8.84,3.12C88.57,46.4,89.39,48.24,88.89,50.91z M52.99,58.72c-3.44,0.44-5.95,0.77-6.4,0.83
		c-0.08,0.01-0.29,0.05-0.37,0.19c-0.06,0.12-0.03,0.29,0.11,0.49c0.36,0.52,0.74,1.03,1.04,1.58c0.28,0.5,0.56,0.67,1.14,0.41
		c0.83-0.37,1.69-0.67,2.55-0.93c0.47-0.14,0.85-0.31,1.03-0.64c0.15-0.27,0.01-0.47,0.08-0.82C52.22,59.53,52.41,59.14,52.99,58.72
		z M71.59,65.73c-1.83,0.58-3.35,1.77-5.06,2.57c-0.29,0.14-0.31,0.32-0.09,0.55c0.55,0.56,0.64,1.26,0.61,1.99
		c-0.03,0.58,0.13,0.7,0.67,0.4c1.75-0.95,3.45-1.98,5.27-2.79c0.45-0.2,0.59-0.4,0.01-0.73c-0.77-0.43-1.7-0.82-1.43-2.02
		C71.58,65.71,71.59,65.72,71.59,65.73z M73.62,65.07c-0.18,0.04-0.52,0.11-0.77,0.4c-0.16,0.18-0.27,0.43-0.3,0.73
		c-0.06,0.66,0.49,0.75,0.9,0.94c0.28,0.13,0.61,0.25,0.91,0.24c2.47-0.06,4.79,1.03,7.25,0.98c0.18,0,0.44-0.03,0.46,0.24
		c0.02,0.28-0.19,0.43-0.45,0.45c-0.44,0.03-0.88,0.02-1.31,0.02c-0.61,0-0.92,0.32-1.07,0.9c-0.1,0.39-0.08,0.58,0.39,0.55
		c0.68-0.04,1.36-0.05,2.03-0.03c0.5,0.02,0.86-0.06,1.19-0.53c0.8-1.17,1.58-2.35,2.21-3.63c0.54-1.09,0.77-2.24,0.66-3.46
		c-0.02-0.17,0.01-0.52-0.24-0.41c-0.76,0.33-1.8,0.59-2.08,1.26c-0.14,0.34-0.29,0.53-0.47,0.64c-0.34,0.21-0.72,0.17-0.85,0.16
		c-1.67-0.17-3.12,0.72-6.18,0.37C75.91,64.89,75.03,64.79,73.62,65.07z M54.1,61.21c-1.92,0.47-3.7,1.35-5.57,1.98
		c-0.15,0.05-0.4,0.14-0.32,0.42c0.07,0.25,0.24,0.35,0.5,0.43c1.26,0.37,1.49,1.47,0.54,2.36c-0.47,0.44-1.03,0.54-1.65,0.54
		c-0.64,0.01-1.06-0.27-1.33-0.82c-0.27-0.56,0.05-0.98,0.32-1.43c0.18-0.3,0.7-0.34,0.74-0.97c-2.32,0.97-4.45,1.98-6.5,3.16
		c-0.43,0.25-0.37,0.5-0.19,0.88c0.34,0.71,0.7,1.43,0.95,2.18c0.23,0.67,0.5,0.77,1.17,0.5c3.26-1.34,6.55-2.62,9.83-3.9
		c3.47-1.35,6.96-2.66,10.44-4c0.33-0.13,1-0.17,0.52-0.85c-0.65-0.91-1.29-1.81-1.95-2.71c-0.13-0.18-0.22-0.44-0.54-0.35
		c-1.96,0.56-3.89,1.21-5.76,2.01c0.13,0.34,0.36,0.32,0.53,0.41c0.86,0.5,1.15,1.22,0.78,1.98c-0.37,0.75-1.41,1.19-2.11,0.89
		c-0.81-0.35-1.06-1.13-0.7-2.11c0.09-0.23,0.21-0.42,0.35-0.62c-0.07-0.06-0.06-0.07,0.02-0.04C54.14,61.17,54.12,61.19,54.1,61.21
		z M60.35,74.14c-1.2,0.04-1.4-0.26-1.03-1.3c0.23-0.64,0.56-1.23,0.88-1.82c0.14-0.26,0.37-0.53,0.11-0.97
		c-0.95-1.57-0.38-2.64,1.45-2.86c0.18-0.02,0.4,0.14,0.52-0.11c0.55-1.17,1.75-1.57,2.7-2.26c0.12-0.09,0.38-0.13,0.31-0.3
		c-0.19-0.52-0.52-0.98-0.89-1.38c-0.26-0.28-0.55,0.03-0.82,0.13c-6.78,2.59-13.51,5.31-20.34,7.78c-0.99,0.36-1.01,0.37-0.61,1.43
		c1.83,4.86,3.49,9.78,5.42,14.6c0.31,0.76,0.52,0.87,1.3,0.6c3.99-1.37,7.73-3.31,11.66-4.82c3.52-1.35,6.96-2.91,10.4-4.46
		c0.48-0.21,0.74-0.35,0.46-1.01c-0.77-1.84-1.82-3.53-2.64-5.33c-0.17-0.38-0.39-0.49-0.73-0.27c-0.83,0.52-1.81,0.56-2.71,0.87
		c-0.57,0.19-0.92,0.45-1.14,1.04c-0.34,0.92-1.5,1.52-2.08,1C61.8,74,61.07,73.91,60.35,74.14z M68.13,54.66
		c-0.04-0.16-0.09-0.27-0.11-0.39c-0.26-2.21-0.5-4.42-0.79-6.63c-0.28-2.17-0.64-4.32-0.91-6.49c-0.07-0.59-0.25-0.59-0.75-0.47
		c-1.08,0.25-2.19,0.39-3.29,0.57c-4.03,0.68-8.07,1.37-12.1,2.04c-3.21,0.53-6.42,1.08-9.65,1.53c-0.77,0.11-0.95,0.42-0.85,1.08
		c0.2,1.41,0.37,2.84,0.63,4.24c0.08,0.45-0.01,0.92,0.32,1.36c1.69,2.22,3.04,4.67,4.58,6.99c0.26,0.39,0.46,0.48,0.95,0.39
		c4.37-0.8,8.75-1.54,13.13-2.3c2.74-0.47,5.48-0.95,8.22-1.42C67.87,55.11,68.19,55.09,68.13,54.66z M88.16,49.87
		c0.02-2.01-0.92-3.18-2.39-3.93c-2.73-1.38-5.58-2.44-8.59-3.06c-1.38-0.28-1.39-0.34-2.05,0.86c-1.78,3.24-3.05,6.69-4.16,10.21
		c-0.08,0.26-0.1,0.55-0.1,0.82c0,0.22-0.11,0.51,0.2,0.61c0.25,0.08,0.45-0.04,0.64-0.21c0.63-0.56,1.3-1.07,1.76-1.78
		c0.42-0.66,0.93-0.76,1.62-0.48c1.65,0.67,3.37,1.17,4.93,2.06c0.58,0.33,1.13,0.29,1.69-0.03c1.6-0.88,3.16-1.84,4.82-2.6
		C87.79,51.77,88.22,50.88,88.16,49.87z M23.81,62.47c2.14,0.03,4.21,0.39,6.3,0.53c1.95,0.12,3.91,0.12,5.85-0.17
		c1.2-0.18,2.49-0.51,2.7-1.94c0.41-2.82,1.14-5.62,0.58-8.52c-0.21-1.06-0.2-1.09-1.1-0.52c-3.19,2.03-6.21,4.31-9.31,6.47
		C27.06,59.55,25.37,60.89,23.81,62.47z M66.08,38.98c-0.09-0.71-0.18-1.42-0.26-2.13c-0.05-0.44-0.29-0.34-0.59-0.29
		c-3.97,0.75-7.94,1.51-11.91,2.23c-4.17,0.76-8.34,1.51-12.52,2.21c-1.93,0.33-1.94,0.27-1.47,2.21c0.25,1.04,0.32,1.05,1.4,0.85
		c3.9-0.71,7.79-1.41,11.7-2.08c4.29-0.74,8.59-1.47,12.9-2.14C65.97,39.76,66.16,39.56,66.08,38.98z M34.48,71.66
		c0,1.24-0.03,2.47,0.01,3.71c0.02,0.55,0.27,0.78,0.83,0.34c1-0.79,2.03-1.55,3.08-2.27c0.38-0.26,0.58-0.54,0.55-0.97
		c-0.1-1.36,0.31-2.7,0.25-4.06c-0.04-0.98,0.35-1.65,1.17-2.19c1.17-0.77,2.42-1.39,3.68-1.96c0.64-0.29,0.7-0.71,0.69-1.32
		c-0.01-0.59-0.28-0.84-0.77-1.01c-1.12-0.4-2.25-0.78-3.34-1.24c-0.65-0.27-1.03-0.24-1.15,0.54c-0.14,0.91-0.73,1.49-1.51,1.88
		c-0.82,0.41-1.7,0.68-2.63,0.7c-1.25,0.02-1.14-0.15-1.18,1.28C34.09,67.28,34.57,69.46,34.48,71.66z M64.07,66.33
		c0.7,0.23,1,0.66,1.16,1.16c0.16,0.53,0.34,0.51,0.78,0.26c7.71-4.27,15.43-8.53,23.15-12.78c1.51-0.83,1.52-0.91,0.43-2.28
		c-0.05-0.06-0.11-0.12-0.16-0.18c-0.29-0.42-0.59-0.5-1.09-0.23c-3.81,2.05-7.63,4.09-11.42,6.18
		C72.58,60.84,68.63,63.89,64.07,66.33z M33.24,65.45c0-0.16-0.01-0.32,0-0.48c0.05-1.11,0.05-1.12-1.07-1.13
		c-2.11-0.02-4.21-0.08-6.3-0.47c-0.66-0.12-1.66-0.37-1.99,0.14c-0.29,0.45,0.43,1.19,0.82,1.73c2.42,3.31,4.85,6.61,7.28,9.9
		c0.4,0.54,0.86,1.05,1.3,1.56c0.09,0.11,0.19,0.28,0.38,0.17c0.19-0.11,0.23-0.25,0.18-0.49c-0.15-0.69-0.34-1.4-0.36-2.1
		C33.38,71.34,33.58,68.38,33.24,65.45z M38.23,84.43c2.16-0.92,4.02-1.97,5.91-2.99c0.52-0.28,0.59-0.54,0.4-1.13
		c-0.89-2.79-2.04-5.49-2.98-8.27c-0.2-0.6-0.45-1.19-0.74-1.75c-0.26-0.52-0.33-1.15-0.85-1.66
		C39.72,73.97,39.17,79.14,38.23,84.43z M74.77,63.99c2.19,0.23,4.36-0.29,6.54-0.21c0.21,0.01,0.44-0.16,0.64-0.28
		c3-1.72,6-3.45,9-5.18c0.99-0.57,0.99-0.57,0.61-1.65c-0.07-0.19-0.13-0.37-0.21-0.56c-0.45-1.15-0.45-1.15-1.53-0.56
		c-4.81,2.64-9.62,5.28-14.43,7.93C75.17,63.6,74.84,63.62,74.77,63.99z M96.53,54.53c-0.12-2.07-0.6-3.74-2.4-4.71
		c-0.47-0.25-0.92-0.41-1.44-0.08c-0.83,0.54-1.68,1.06-2.53,1.56c-0.23,0.14-0.45,0.23-0.21,0.51c1.28,1.52,2.01,3.31,2.59,5.17
		c0.14,0.44,0.4,0.35,0.73,0.13c0.86-0.57,1.73-1.13,2.63-1.63C96.38,55.21,96.58,54.86,96.53,54.53z M47.06,88.26
		c0.14-0.11,0.68,0.18,0.42-0.47c-0.72-1.8-1.42-3.61-2.13-5.42c-0.15-0.39-0.38-0.41-0.74-0.21c-1.77,1-3.56,1.94-5.43,2.71
		c-0.6,0.24-0.44,0.44-0.01,0.65c1.26,0.6,2.5,1.22,3.78,1.76C44.23,87.83,45.62,88.02,47.06,88.26z M40.15,52.64
		c0.41,2.01,0.09,3.96-0.22,5.9c-0.13,0.82,0.11,1.22,0.94,1.35c0.5,0.08,0.99,0.28,1.47,0.45c0.71,0.25,1.4,0.53,2.11,0.77
		c0.35,0.12,0.74,0.12,0.99-0.19c0.24-0.31-0.06-0.57-0.21-0.8c-1.44-2.27-2.9-4.54-4.36-6.81C40.7,53.07,40.62,52.72,40.15,52.64z
		 M64.45,68.25c0-0.03,0.05-0.15,0.03-0.26c-0.07-0.47-0.33-0.78-0.8-0.93c-0.55-0.18-0.57,0.33-0.72,0.58
		c-0.62,1.05-1.26,2.09-1.75,3.22c-0.19,0.43-0.16,0.68,0.15,1.04c0.82,0.94,0.79,0.96,2.07,0.57c0.76-0.22,1.51-0.44,2.27-0.64
		c0.45-0.12,0.61-0.35,0.61-0.83c-0.01-1.17-0.24-1.63-1.35-1.88C64.42,69.01,64.32,68.8,64.45,68.25z M76.49,57.79
		c-2.71,0.16-4.97,1.45-7.14,2.93c-0.46,0.31-0.87,0.7-1.16,1.19c-0.1,0.17-0.26,0.37-0.14,0.55c0.15,0.22,0.43,0.18,0.66,0.13
		c0.15-0.03,0.28-0.14,0.41-0.22C71.57,60.84,74.03,59.32,76.49,57.79z M71.17,70.46c1.38,0.47,2.66,0.58,3.96,0.54
		c0.28-0.01,0.72,0.12,0.7-0.38c-0.02-0.38-0.39-0.35-0.65-0.33c-0.77,0.06-1.51-0.12-2.21-0.34
		C72.29,69.73,71.84,69.93,71.17,70.46z M73.47,69.24c0.78,0.32,1.61,0.33,2.44,0.33c0.23,0,0.56,0.02,0.57-0.27
		c0.02-0.81,0.71-0.65,1.16-0.86C76.18,68.42,74.64,67.89,73.47,69.24z M71.94,71.53c0.45,0.41,0.9,0.52,1.35,0.69
		c0.77,0.29,1.56,0.2,2.35,0.2c0.25,0,0.48-0.16,0.44-0.45c-0.04-0.27-0.28-0.22-0.47-0.18C74.41,72.06,73.26,71.61,71.94,71.53z
		 M47.49,65.13c-0.17-0.03-0.26,0.09-0.33,0.22c-0.12,0.23-0.11,0.45,0.11,0.63c0.32,0.26,0.64,0.18,0.99,0.03
		c0.38-0.17,0.68-0.38,0.76-0.81c0.03-0.17-0.08-0.3-0.23-0.37c-0.14-0.06-0.35-0.11-0.4,0.07C48.22,65.55,47.97,65.75,47.49,65.13z
		 M54.09,59.8c-0.06-0.34-0.16-0.72-0.52-0.69c-0.44,0.03-0.63,0.42-0.68,0.84c-0.02,0.22-0.03,0.57,0.31,0.46
		C53.53,60.3,54.02,60.3,54.09,59.8z M55.53,61.93c-0.26,0.3-0.57,0.37-0.99,0.22c-0.21-0.07-0.24,0.27-0.19,0.45
		c0.11,0.39,0.39,0.55,0.81,0.49c0.45-0.07,0.69-0.36,0.74-0.78C55.93,62.16,55.8,61.95,55.53,61.93z M46.9,62.75
		c-1.48-0.39-1.48-0.39-1.35,0.71C45.99,63.29,46.45,63.21,46.9,62.75z M61.23,68.13c-0.44,0.07-0.68,0.37-0.76,0.78
		c-0.03,0.16,0.09,0.49,0.19,0.51c0.43,0.1,0.39-0.38,0.58-0.58c0.1-0.11,0.19-0.26,0.24-0.41C61.53,68.26,61.46,68.13,61.23,68.13z
		 M62.44,73.79c0.96,0.38,1,0.37,1.52-0.54C63.46,73.38,62.96,73.48,62.44,73.79z M77.7,70.28c-0.39,0.04-0.66,0.06-0.93,0.09
		c-0.2,0.03-0.41,0.08-0.35,0.35c0.06,0.31,0.26,0.17,0.44,0.11C77.15,70.72,77.46,70.66,77.7,70.28z M77.54,71.71
		c-0.01-0.14-0.11-0.23-0.22-0.19c-0.27,0.1-0.66,0.09-0.68,0.51c0,0.11-0.04,0.33,0.23,0.25C77.18,72.18,77.47,72.08,77.54,71.71z
		 M77.9,69.42c-0.11-0.04-0.2-0.09-0.3-0.1c-0.12-0.01-0.29-0.06-0.33,0.14c0,0.02,0.12,0.07,0.19,0.08
		C77.61,69.55,77.76,69.57,77.9,69.42z M78.91,69.03c0.04-0.11,0.01-0.17-0.09-0.17c-0.07,0-0.15,0.02-0.2,0.06
		c-0.03,0.02,0.02,0.12,0.03,0.18C78.74,69.07,78.83,69.05,78.91,69.03z"/>
	<path d="M90.82,66.08c-0.05,0.53-0.23,0.84-0.74,0.83c-0.42-0.01-0.73-0.23-0.71-0.62c0.02-0.48,0.36-0.77,0.85-0.81
		C90.7,65.45,90.79,65.79,90.82,66.08z"/>
	<path d="M56.18,77.24c-0.79,0.03-1.33-0.43-1.37-1.28c-0.02-0.52-0.1-0.92-0.61-1.16c-0.2-0.1-0.45-0.33-0.29-0.56
		c0.18-0.26,0.56-0.21,0.75-0.03c0.5,0.49,0.89,0.18,1.36-0.05c0.29-0.14,0.42-0.28,0.48-0.59c0.06-0.31,0.17-0.61,0.3-0.9
		c0.11-0.25,0.25-0.53,0.6-0.46c0.4,0.07,0.31,0.4,0.3,0.66c0,0.16-0.01,0.33-0.07,0.47c-0.28,0.6-0.35,1.07,0.13,1.7
		C58.35,75.83,57.3,77.2,56.18,77.24z M56.93,76.07c0.2-0.21,0.27-0.43,0.2-0.54c-0.01-0.02-0.04-0.05-0.09-0.07
		c-0.04,0.09-0.07,0.21-0.09,0.35C56.93,75.91,56.93,75.99,56.93,76.07z M56.03,76.09c-0.09-0.02-0.2-0.07-0.31-0.06
		c-0.02,0-0.03,0.01-0.05,0.03c-0.08,0.07-0.06,0.25,0.01,0.36c0.14,0.2,0.55,0.2,0.63,0.05c0.04-0.08-0.02-0.19-0.05-0.25
		C56.18,76.1,56.05,76.09,56.03,76.09z M56.36,74.78c-0.15,0.07-0.29,0.14-0.44,0.21c0.14,0.1,0.28,0.2,0.42,0.3
		C56.35,75.12,56.36,74.95,56.36,74.78z"/>
	<path d="M48.1,71.94c0.96,0.01,1.63,0.58,1.6,1.38c-0.02,0.86-0.95,1.74-1.82,1.74c-0.74,0-1.41-0.63-1.43-1.34
		C46.43,72.73,47.16,71.94,48.1,71.94z M48.11,74.12c0.35-0.04,0.71-0.22,0.69-0.79c-0.02-0.52-0.35-0.67-0.81-0.65
		c-0.62,0.03-0.62,0.49-0.64,0.95C47.34,74.08,47.61,74.15,48.11,74.12z"/>
	<path d="M54.12,72.44c-0.9-0.02-1.27-0.41-1.25-1.35c0.02-0.96,0.81-1.77,1.72-1.77c0.86,0.01,1.51,0.71,1.5,1.64
		C56.08,71.75,55.14,72.46,54.12,72.44z M54.12,71.62c0.66-0.05,1.22-0.56,1.14-0.97c-0.07-0.38-0.4-0.55-0.71-0.51
		c-0.49,0.07-0.91,0.34-0.94,0.91C53.6,71.46,53.84,71.62,54.12,71.62z"/>
	<path d="M50.19,76.97c0.99-0.01,1.69,0.49,1.72,1.24c0.04,0.85-0.86,1.67-1.81,1.66c-0.89-0.01-1.5-0.59-1.53-1.45
		C48.53,77.52,49.14,76.98,50.19,76.97z M49.28,78.29c0.09,0.51,0.45,0.79,0.83,0.76c0.42-0.02,0.88-0.25,0.86-0.81
		c-0.01-0.38-0.32-0.52-0.67-0.53C49.84,77.7,49.47,77.86,49.28,78.29z"/>
	<path d="M64.71,78.96c-0.92-0.01-1.31-0.36-1.3-1.17c0.01-0.83,0.83-1.48,1.82-1.45c0.86,0.03,1.34,0.47,1.31,1.2
		C66.5,78.45,65.83,78.97,64.71,78.96z M65.11,77.2c-0.38,0.04-0.86-0.02-0.92,0.52c-0.04,0.33,0.26,0.45,0.57,0.46
		c0.5,0.02,0.92-0.2,0.99-0.68C65.8,77.09,65.34,77.29,65.11,77.2z"/>
	<path d="M52.18,84.42c-0.64,0-1.67-0.78-1.68-1.27c-0.02-0.61,1.03-1.44,1.81-1.43c0.89,0.01,1.33,0.46,1.31,1.32
		C53.59,83.86,53.01,84.43,52.18,84.42z M51.46,83.03c0.14,0.3,0.37,0.56,0.68,0.57c0.37,0.01,0.68-0.24,0.7-0.63
		c0.02-0.33-0.25-0.46-0.55-0.46C51.92,82.51,51.62,82.64,51.46,83.03z"/>
	<path d="M57.17,80.94c0-0.75,0.64-1.31,1.51-1.33c0.83-0.02,1.4,0.51,1.39,1.28c0,0.71-0.72,1.34-1.54,1.36
		C57.71,82.27,57.17,81.75,57.17,80.94z M59.23,80.85c-0.12-0.34-0.38-0.52-0.71-0.42c-0.25,0.08-0.67,0.11-0.59,0.57
		c0.09,0.45,0.46,0.32,0.75,0.32C58.98,81.32,59.2,81.2,59.23,80.85z"/>
	<path d="M65.83,46.95c0,0.25,0,0.29,0,0.33c0.06,2.44,0.05,2.39-2.31,2.62c-1.85,0.18-3.7,0.45-5.53,0.8
		c-0.66,0.13-1.34,0.13-2,0.3c-0.67,0.18-1.11-0.25-1.2-0.96c-0.21-1.77-0.4-3.55-0.63-5.32c-0.08-0.57,0.15-0.79,0.67-0.89
		c1.51-0.28,3.01-0.66,4.54-0.88c1.57-0.23,3.13-0.52,4.67-0.86c0.83-0.18,1.19,0.17,1.27,0.81C65.5,44.33,66.02,45.71,65.83,46.95z
		 M65.09,46.93c-0.13-0.89-0.35-2.02-0.44-3.16c-0.05-0.68-0.16-0.85-0.92-0.7c-2.61,0.51-5.23,0.94-7.86,1.32
		c-0.78,0.11-0.93,0.45-0.8,1.11c0.15,0.82,0.3,1.64,0.44,2.46c0.08,0.46-0.16,1.22,0.23,1.31c0.51,0.12,0.66-0.65,0.94-1.04
		c1.39-2,1.59-2.05,3.23-0.26c0.49,0.54,0.69,0.49,1.12-0.06c0.95-1.22,1.39-1.26,2.72-0.47c0.27,0.16,0.52,0.36,0.78,0.55
		c0.13,0.09,0.24,0.24,0.41,0.19c0.27-0.09,0.14-0.33,0.16-0.5C65.1,47.51,65.09,47.35,65.09,46.93z M56.47,50.11
		c0.69-0.13,1.29-0.16,1.83-0.36c0.48-0.17,1.29,0.12,1.38-0.35c0.11-0.55-0.65-0.9-0.99-1.37c-0.23-0.32-0.47-0.36-0.75-0.02
		C57.41,48.65,56.91,49.29,56.47,50.11z M63.9,48.82c-0.29-0.45-0.74-0.64-1.16-0.83c-0.41-0.19-1.58,0.64-1.54,1.09
		c0.01,0.16,0.15,0.31,0.33,0.24C62.28,49.03,63.13,49.3,63.9,48.82z"/>
	<path d="M45.58,56.14c-0.12,0.01-0.26,0.07-0.35,0.02c-0.24-0.11-0.66,0.49-0.73-0.13c-0.05-0.46,0.36-0.56,0.73-0.61
		c0.98-0.15,1.95-0.33,2.93-0.46c1.57-0.21,3.14-0.38,4.71-0.59c0.28-0.04,0.59-0.19,0.7,0.19c0.13,0.46-0.29,0.53-0.57,0.57
		c-2.46,0.37-4.93,0.71-7.4,1.05C45.58,56.17,45.58,56.15,45.58,56.14z"/>
	<path d="M44.28,54.21c-0.12,0-0.24,0.01-0.36,0c-0.14-0.02-0.35,0.01-0.35-0.22c0-0.2,0.16-0.24,0.31-0.28
		c1.12-0.23,2.24-0.48,3.37-0.7c1.67-0.32,3.35-0.62,5.02-0.89c0.43-0.07,1.17-0.34,1.26,0.15c0.14,0.73-0.67,0.45-1.06,0.52
		c-2.53,0.48-5.06,0.93-7.6,1.38C44.68,54.21,44.48,54.2,44.28,54.21z"/>
	<path d="M64.03,51.09c0.04,0,0.08-0.01,0.12-0.01c0.3,0.03,0.7-0.12,0.74,0.37c0.03,0.39-0.33,0.4-0.59,0.45
		c-0.7,0.14-1.4,0.27-2.11,0.38c-1.53,0.24-3.05,0.46-4.58,0.69c-0.2,0.03-0.4,0.04-0.59,0.04c-0.21,0-0.43-0.05-0.46-0.28
		c-0.03-0.22,0.14-0.36,0.35-0.4c2.37-0.43,4.75-0.85,7.12-1.28C64.03,51.05,64.03,51.07,64.03,51.09z"/>
	<path d="M58.05,55.12c-0.47,0.06-0.73-0.06-0.76-0.3c-0.03-0.26,0.24-0.36,0.49-0.41c1.08-0.21,2.16-0.44,3.24-0.64
		c1.05-0.19,2.1-0.37,3.15-0.5c0.31-0.04,0.81-0.23,0.92,0.25c0.13,0.6-0.49,0.57-0.81,0.62c-1.71,0.3-3.43,0.54-5.15,0.77
		C58.7,54.98,58.27,55.05,58.05,55.12z"/>
	<path d="M43.3,47.47c-0.22,0-0.4-0.06-0.45-0.3c-0.06-0.25,0.1-0.34,0.32-0.4c0.92-0.27,1.86-0.39,2.8-0.56
		c1.29-0.23,2.57-0.46,3.85-0.73c0.36-0.07,0.67-0.13,0.71,0.32c0.03,0.35-0.26,0.43-0.56,0.48c-2.15,0.37-4.29,0.76-6.43,1.14
		C43.46,47.44,43.38,47.46,43.3,47.47z"/>
	<path d="M43.82,49.89c-0.28,0-0.36,0-0.44,0c-0.19-0.01-0.44,0.06-0.51-0.17c-0.1-0.31,0.21-0.43,0.41-0.47
		c0.84-0.2,1.69-0.37,2.54-0.53c1.28-0.24,2.56-0.46,3.83-0.69c0.32-0.06,0.68-0.14,0.78,0.29c0.09,0.39-0.3,0.44-0.54,0.49
		C47.82,49.19,45.72,49.56,43.82,49.89z"/>
	<path d="M76.99,49.21c-0.68,0.01-1.08-0.32-1.05-0.92c0.03-0.62,0.53-0.84,1.11-0.82c0.59,0.02,1.03,0.3,1,0.93
		C78.02,49.08,77.47,49.17,76.99,49.21z"/>
	<path d="M81.41,49.72c-0.12,0.45-0.49,0.66-0.96,0.63c-0.59-0.03-0.83-0.41-0.75-0.98c0.06-0.38,0.21-0.76,0.67-0.62
		C80.83,48.89,81.47,48.91,81.41,49.72z"/>
	<path d="M84.56,50.87c0,0.42-0.21,0.67-0.7,0.7c-0.51,0.03-0.9-0.18-0.95-0.66c-0.06-0.48,0.25-0.8,0.78-0.81
		C84.17,50.09,84.53,50.26,84.56,50.87z"/>
	<path d="M48.56,41.18c-0.09,0.49-0.47,0.55-0.89,0.57c-0.39,0.02-0.64-0.13-0.59-0.54c0.05-0.5,0.46-0.63,0.86-0.64
		C48.27,40.58,48.55,40.76,48.56,41.18z"/>
	<path d="M42.1,42.35c-0.11,0.44-0.43,0.59-0.81,0.55c-0.29-0.03-0.57-0.22-0.51-0.55c0.06-0.37,0.27-0.66,0.74-0.61
		C41.91,41.78,42.07,42,42.1,42.35z"/>
	<path d="M44.6,41.25c0.36,0,0.76,0.02,0.81,0.47c0.05,0.41-0.3,0.52-0.63,0.53c-0.34,0.01-0.74,0.06-0.77-0.47
		C43.98,41.35,44.24,41.24,44.6,41.25z"/>
	<path d="M75.65,65.62c0.21-0.03,0.53,0.34,0.49,0.69c-0.02,0.21-0.18,0.35-0.25,0.42c-0.29,0.29-1.54,0.26-1.92-0.03
		c-0.08-0.06-0.17-0.18-0.18-0.27c0-0.06,0.01-0.11,0.04-0.14c0.07-0.09,0.22-0.08,0.29-0.08c0.67,0.04,0.86,0.15,1.06,0.06
		C75.51,66.13,75.43,65.65,75.65,65.62z"/>
	<path d="M60.44,46.82c-0.66,0.03-1.07-0.34-1.08-0.97c-0.01-0.58,0.5-0.98,1.21-1.01c0.64-0.02,0.96,0.28,1,0.9
		C61.61,46.38,61.16,46.79,60.44,46.82z M60.74,45.79c-0.05-0.12-0.14-0.19-0.26-0.15c-0.15,0.05-0.28,0.14-0.31,0.3
		c0,0.02,0.18,0.1,0.28,0.1C60.61,46.04,60.76,46,60.74,45.79z"/>
</g>
</svg>
